<svg id="Layer_1" data-name="Layer 1" xmlns="http://www.w3.org/2000/svg" viewBox="0 0 930.078 591.545">
  <g>
    <path d="M831.1,586.477c86.883,0,113.353-71.659,88.322-159.417-14.156-49.63-46.89-114.53-100.369-143.9C672.706,202.786,692.429,198.927,656.2,113.378,597.06-26.275,369.649-31.664,276.728,68.408c-72.3,77.864-103.24,187.631-201.744,268.507-118.9,97.623-86.47,250.976,27.741,250.976Z" fill="#03045E" opacity="0.1"></path>
    <g>
      <g>
        <polygon points="928.392 501.844 11.995 501.844 64.735 388.316 875.652 388.316 928.392 501.844" fill="#292a2e"></polygon>
        <polygon points="928.392 501.844 11.995 501.844 64.735 388.316 875.652 388.316 928.392 501.844" fill="#fff"></polygon>
        <path d="M928.392,502.844H12a1,1,0,0,1-.906-1.426L63.83,387.891a1,1,0,0,1,.905-.575H875.651a1,1,0,0,1,.906.575L929.3,501.418a1,1,0,0,1-.9,1.426Zm-914.823-2H926.817l-51.8-111.528H65.371Z" fill="#292a2e"></path>
      </g>
      <g>
        <g>
          <rect x="444.82" y="350.307" width="88.746" height="67.092" fill="#292a2e"></rect>
          <rect x="444.82" y="350.308" width="88.747" height="35.842" fill="#0c0c0c" opacity="0.64"></rect>
          <rect x="289.97" y="84.124" width="398.447" height="284.564" rx="10.736" fill="#292a2e"></rect>
          <rect x="301.599" y="96.319" width="375.189" height="227.011" rx="4.407" fill="#fff"></rect>
          <rect x="420.533" y="411.885" width="137.321" height="11.647" rx="5.824" fill="#292a2e"></rect>
        </g>
        <g>
          <path d="M427.037,132.58H410.352a.741.741,0,1,1,0-1.481h16.685a.741.741,0,0,1,0,1.481Z" fill="#292a2e"></path>
          <g>
            <path d="M398.319,132.58h-6.313a.741.741,0,1,1,0-1.481h6.313a.741.741,0,1,1,0,1.481Z" fill="#03045E"></path>
            <path d="M398.319,145.945h-6.313a.741.741,0,1,1,0-1.482h6.313a.741.741,0,0,1,0,1.482Z" fill="#03045E"></path>
            <path d="M398.319,159.31h-6.313a.741.741,0,1,1,0-1.482h6.313a.741.741,0,0,1,0,1.482Z" fill="#03045E"></path>
            <path d="M398.319,172.675h-6.313a.741.741,0,1,1,0-1.482h6.313a.741.741,0,0,1,0,1.482Z" fill="#03045E"></path>
            <path d="M398.319,186.039h-6.313a.741.741,0,1,1,0-1.481h6.313a.741.741,0,1,1,0,1.481Z" fill="#03045E"></path>
            <path d="M398.319,199.4h-6.313a.741.741,0,1,1,0-1.482h6.313a.741.741,0,0,1,0,1.482Z" fill="#03045E"></path>
            <path d="M398.319,212.769h-6.313a.741.741,0,1,1,0-1.482h6.313a.741.741,0,0,1,0,1.482Z" fill="#03045E"></path>
            <path d="M398.319,226.133h-6.313a.741.741,0,1,1,0-1.481h6.313a.741.741,0,1,1,0,1.481Z" fill="#03045E"></path>
            <path d="M398.319,239.5h-6.313a.741.741,0,1,1,0-1.482h6.313a.741.741,0,0,1,0,1.482Z" fill="#03045E"></path>
            <path d="M398.319,252.863h-6.313a.741.741,0,1,1,0-1.482h6.313a.741.741,0,0,1,0,1.482Z" fill="#03045E"></path>
            <path d="M398.319,266.227h-6.313a.741.741,0,1,1,0-1.481h6.313a.741.741,0,1,1,0,1.481Z" fill="#03045E"></path>
            <path d="M398.319,279.592h-6.313a.741.741,0,0,1,0-1.482h6.313a.741.741,0,1,1,0,1.482Z" fill="#03045E"></path>
            <path d="M398.319,292.957h-6.313a.741.741,0,0,1,0-1.482h6.313a.741.741,0,1,1,0,1.482Z" fill="#03045E"></path>
            <path d="M398.319,306.321h-6.313a.741.741,0,1,1,0-1.481h6.313a.741.741,0,1,1,0,1.481Z" fill="#03045E"></path>
          </g>
          <path d="M440.371,145.945h-15.2a.741.741,0,1,1,0-1.481h15.2a.741.741,0,1,1,0,1.481Z" fill="#292a2e"></path>
          <path d="M427.037,226.133H410.352a.741.741,0,1,1,0-1.481h16.685a.741.741,0,0,1,0,1.481Z" fill="#292a2e"></path>
          <path d="M440.371,239.5h-15.2a.741.741,0,1,1,0-1.482h15.2a.741.741,0,1,1,0,1.482Z" fill="#292a2e"></path>
          <g>
            <path d="M546.308,159.31H435.54a.741.741,0,0,1,0-1.482H546.308a.741.741,0,1,1,0,1.482Z" fill="#292a2e"></path>
            <path d="M626.446,159.31h-64.1a.741.741,0,0,1,0-1.482h64.1a.741.741,0,1,1,0,1.482Z" fill="#6D7ECE"></path>
            <path d="M660.845,159.31H641.2a.741.741,0,1,1,0-1.482h19.647a.741.741,0,1,1,0,1.482Z" fill="#292a2e"></path>
          </g>
          <g>
            <path d="M590.757,186.039H435.54a.741.741,0,1,1,0-1.481H590.757a.741.741,0,1,1,0,1.481Z" fill="#292a2e"></path>
            <path d="M626.446,186.039H606.8a.741.741,0,1,1,0-1.481h19.648a.741.741,0,1,1,0,1.481Z" fill="#03045E"></path>
          </g>
          <g>
            <path d="M452.225,172.675H435.54a.741.741,0,0,1,0-1.482h16.685a.741.741,0,1,1,0,1.482Z" fill="#6D7ECE"></path>
            <path d="M582,172.675H468.265a.741.741,0,0,1,0-1.482H582a.741.741,0,1,1,0,1.482Z" fill="#03045E"></path>
            <path d="M660.974,172.675H599.84a.741.741,0,1,1,0-1.482h61.134a.741.741,0,1,1,0,1.482Z" fill="#292a2e"></path>
          </g>
          <g>
            <path d="M546.308,199.4H435.54a.741.741,0,1,1,0-1.482H546.308a.741.741,0,0,1,0,1.482Z" fill="#292a2e"></path>
            <path d="M596.813,199.4H562.348a.741.741,0,0,1,0-1.482h34.465a.741.741,0,0,1,0,1.482Z" fill="#6D7ECE"></path>
            <path d="M660.845,199.4H611.564a.741.741,0,0,1,0-1.482h49.281a.741.741,0,0,1,0,1.482Z" fill="#292a2e"></path>
          </g>
          <g>
            <path d="M452.225,212.769H435.54a.741.741,0,0,1,0-1.482h16.685a.741.741,0,0,1,0,1.482Z" fill="#03045E"></path>
            <path d="M582,212.769H468.265a.741.741,0,0,1,0-1.482H582a.741.741,0,1,1,0,1.482Z" fill="#6D7ECE"></path>
          </g>
          <g>
            <path d="M543.344,266.228H432.577a.741.741,0,0,1,0-1.482H543.344a.741.741,0,1,1,0,1.482Z" fill="#292a2e"></path>
            <path d="M623.483,266.228h-64.1a.741.741,0,1,1,0-1.482h64.1a.741.741,0,0,1,0,1.482Z" fill="#03045E"></path>
          </g>
          <g>
            <path d="M478.9,252.863H432.577a.741.741,0,1,1,0-1.482H478.9a.741.741,0,0,1,0,1.482Z" fill="#6D7ECE"></path>
            <path d="M579.033,252.863h-84.1a.741.741,0,1,1,0-1.482h84.1a.741.741,0,0,1,0,1.482Z" fill="#03045E"></path>
            <path d="M658.011,252.863H596.877a.741.741,0,0,1,0-1.482h61.134a.741.741,0,0,1,0,1.482Z" fill="#292a2e"></path>
          </g>
          <g>
            <path d="M587.794,292.957H432.577a.741.741,0,0,1,0-1.482H587.794a.741.741,0,0,1,0,1.482Z" fill="#03045E"></path>
            <path d="M633.483,292.957H603.835a.741.741,0,0,1,0-1.482h29.648a.741.741,0,1,1,0,1.482Z" fill="#292a2e"></path>
          </g>
          <g>
            <path d="M449.261,279.592H432.577a.741.741,0,1,1,0-1.481h16.684a.741.741,0,1,1,0,1.481Z" fill="#03045E"></path>
            <path d="M579.033,279.592H465.3a.741.741,0,1,1,0-1.481H579.033a.741.741,0,1,1,0,1.481Z" fill="#292a2e"></path>
            <path d="M658.011,279.592H596.877a.741.741,0,1,1,0-1.481h61.134a.741.741,0,1,1,0,1.481Z" fill="#6D7ECE"></path>
          </g>
          <g>
            <path d="M543.344,306.322H432.577a.741.741,0,1,1,0-1.482H543.344a.741.741,0,1,1,0,1.482Z" fill="#6D7ECE"></path>
            <path d="M593.85,306.322H559.385a.741.741,0,0,1,0-1.482H593.85a.741.741,0,0,1,0,1.482Z" fill="#292a2e"></path>
            <path d="M657.882,306.322H608.6a.741.741,0,1,1,0-1.482h49.281a.741.741,0,0,1,0,1.482Z" fill="#03045E"></path>
          </g>
          <path d="M381.97,313.622a.74.74,0,0,1-.741-.74V109.252a.741.741,0,1,1,1.482,0v203.63A.74.74,0,0,1,381.97,313.622Z" fill="#292a2e"></path>
          <g>
            <path d="M348.086,118.505H316a.741.741,0,0,1,0-1.482h32.082a.741.741,0,0,1,0,1.482Z" fill="#292a2e"></path>
            <path d="M338.422,133.117H316a.741.741,0,1,1,0-1.481h22.418a.741.741,0,0,1,0,1.481Z" fill="#292a2e"></path>
            <path d="M358.135,147.73H316a.741.741,0,0,1,0-1.482h42.131a.741.741,0,0,1,0,1.482Z" fill="#292a2e"></path>
            <path d="M365.994,162.342H330.821a.741.741,0,1,1,0-1.481h35.173a.741.741,0,1,1,0,1.481Z" fill="#292a2e"></path>
            <path d="M348.987,176.955H330.821a.741.741,0,1,1,0-1.482h18.166a.741.741,0,0,1,0,1.482Z" fill="#292a2e"></path>
            <path d="M362.9,191.568H330.821a.741.741,0,0,1,0-1.482H362.9a.741.741,0,0,1,0,1.482Z" fill="#292a2e"></path>
            <path d="M340.741,206.18H316a.741.741,0,0,1,0-1.482h24.737a.741.741,0,0,1,0,1.482Z" fill="#292a2e"></path>
            <path d="M332.237,220.793H316a.741.741,0,0,1,0-1.482h16.233a.741.741,0,1,1,0,1.482Z" fill="#292a2e"></path>
          </g>
          <g>
            <path d="M397.311,115.371v.267l9.261,3.437a.713.713,0,0,1,.444.667v.252a.657.657,0,0,1-.3.563.683.683,0,0,1-.652.074l-10.46-4.09a.706.706,0,0,1-.445-.652v-.755a.692.692,0,0,1,.445-.652l10.46-4.1a.83.83,0,0,1,.266-.045.738.738,0,0,1,.386.119.681.681,0,0,1,.3.578v.251a.679.679,0,0,1-.444.652Z" fill="#03045E"></path>
            <path d="M415.669,107.355l-5.541,16.965a.7.7,0,0,1-.667.489.655.655,0,0,1-.549-.282.715.715,0,0,1-.118-.622l5.541-16.95a.732.732,0,0,1,.682-.5.672.672,0,0,1,.548.282A.68.68,0,0,1,415.669,107.355Z" fill="#03045E"></path>
            <path d="M429.276,115.134v.755a.693.693,0,0,1-.429.652l-10.476,4.09a.659.659,0,0,1-.637-.074.674.674,0,0,1-.311-.563v-.252a.7.7,0,0,1,.46-.667l9.26-3.437v-.267l-9.26-3.438a.671.671,0,0,1-.46-.652v-.251a.7.7,0,0,1,.311-.578.737.737,0,0,1,.385-.119.685.685,0,0,1,.252.045l10.476,4.1A.68.68,0,0,1,429.276,115.134Z" fill="#03045E"></path>
          </g>
        </g>
      </g>
      <g>
        <path d="M48.743,588.172A37.5,37.5,0,0,1,13.564,537.7c2.121-5.755,56.525-146.193,66-170.6l65.47,38.1c-5.324,13.724-24.618,65.745-40.118,107.651l25.751-2.8,8.1,68.561L52.8,587.953A37.656,37.656,0,0,1,48.743,588.172Z" fill="#03045E"></path>
        <path id="h_3_sk" d="M262.888,337.9c-.23-.03-6.53,23.68-55.7,19.99-34.04-2.55-42.34-25.72-43.12-25.72,3.67-.78,9.63-1.59,11.26-2.46,5.36-2.88,9.264-6.386,11.23-13.91,1.537-5.884,2.32-28.536,2.32-39.9l52.38,11.77c-.73,12.82-5.84,42.54,12.07,47.8C256.308,336.335,259.518,337.135,262.888,337.9Z" fill="#E98862"></path>
        <path d="M239.445,312.869c-20.649,1.63-47.175-7.089-52.214-34.639l-4.546-24.858c-5.039-27.55,5.347-52.53,31.287-57.274h0c25.939-4.744,49.413,14.043,54.451,41.593l2.013,11.006C272.369,259.267,276.288,309.963,239.445,312.869Z" fill="#E98862"></path>
        <path id="b_1_b" d="M141.7,335.979c-18.556,1.377-37.477,3.386-51.131,16.027-16.444,15.224-19.424,33.943-8.933,85.457,9.026,44.325,5.445,63.694,11.484,145.486.178,2.409.559,7.393.559,7.393l198.5-.329s18.6-108.517,28.869-158.568c7.809-38.051,28.321-84.244-58.164-93.553C262.66,337.867,193.3,332.151,141.7,335.979Z" fill="#03045E"></path>
        <path d="M93.683,590.843a.5.5,0,0,1-.5-.481L86.962,428.887a.5.5,0,0,1,.481-.519.481.481,0,0,1,.519.481l6.221,161.475a.5.5,0,0,1-.481.518Z" fill="#0c0c0c"></path>
        <g>
          <path d="M412.2,393.633l13.946-31.283a5.42,5.42,0,0,1,7.59-2.527,5.609,5.609,0,0,1,2.195,7.2l-2.99,6.708,19.086-16.778c2.089-1.9,5.87-2.9,7.85-.416a5.418,5.418,0,0,1,.445,6.731.317.317,0,0,1,.063.052.425.425,0,0,1,.032.054l3.222-2.933a5.425,5.425,0,0,1,8.328,1.266,5.547,5.547,0,0,1-1.18,6.883l-1.371,1.249a.517.517,0,0,1,.022.174,5.419,5.419,0,0,1,6.888,1.355,5.594,5.594,0,0,1-.787,7.554l-3.405,3.1a.5.5,0,0,1,.43.157.482.482,0,0,1,.11.255,5.425,5.425,0,0,1,6.029,2.634,5.545,5.545,0,0,1-1.249,6.768l-28.735,26.161a27.292,27.292,0,0,1-30.192,4.419h0a18.008,18.008,0,0,1-8.651-23.566Z" fill="#E98862"></path>
          <g opacity="0.2">
            <path d="M441.508,379.965a.5.5,0,0,0,.7.036l18.131-15.979a.5.5,0,0,0-.662-.751l-18.13,15.979a.5.5,0,0,0-.045.706Z" fill="#0c0c0c"></path>
          </g>
          <g opacity="0.2">
            <path d="M448.335,388.155a.5.5,0,0,0,.7.036l20.234-17.832a.5.5,0,0,0,.044-.706.517.517,0,0,0-.706-.045l-20.234,17.833a.5.5,0,0,0-.044.706Z" fill="#0c0c0c"></path>
          </g>
          <g opacity="0.2">
            <path d="M455.678,397.069a.5.5,0,0,0,.7.036l16.14-14.225a.5.5,0,0,0-.662-.75l-16.14,14.225a.5.5,0,0,0-.044.706Z" fill="#0c0c0c"></path>
          </g>
        </g>
        <path d="M258.588,284.633c-3.556-17.868-5.187-29.789-5-42.365,5.008-8.786,3.692-18.869,2.553-23.227a29.368,29.368,0,0,0,4.489,2.078A4.014,4.014,0,0,0,265.7,215.9c-3.876-10.036-13.839-29.538-34.406-36.073-5.177-2.015-18.4-4.56-35.947-2.153-14.928,2.048-48.726,16.21-53.983,57.637h0v.023c-.174,1.374-6.707,36.544-13.751,54.858-9.469,24.619-22.764,32.269-22.427,60.673.434,36.538,67.6,41.4,108.12,38.668s63.131-16.055,63.424-42.386C277.049,317.641,265.7,320.381,258.588,284.633Z" fill="#0a0a0a"></path>
        <path d="M258.6,271.963c-7.883,1.442-15.816-5.823-17.257-13.706s2.151-15.989,12.244-15.989Z" fill="#E98862"></path>
        <path d="M343.391,582.5a37.52,37.52,0,0,1-35.69-25.964L255.6,395.4l71.362-23.074,27.4,84.754,47.353-75.305L465.21,421.7l-90.082,143.26A37.505,37.505,0,0,1,343.391,582.5Z" fill="#03045E"></path>
        <path d="M301.349,538.006a.477.477,0,0,1-.092-.008.5.5,0,0,1-.4-.583l17.711-96.141a.5.5,0,0,1,.984.181L301.84,537.6A.5.5,0,0,1,301.349,538.006Z" fill="#0c0c0c"></path>
        <path d="M360.736,479.771a.5.5,0,0,1-.484-.374l-5.9-22.726a.5.5,0,0,1,.968-.251l5.9,22.726a.5.5,0,0,1-.485.625Z" fill="#0c0c0c"></path>
      </g>
      <path d="M762.121,475.96H566.615a8.655,8.655,0,0,1-8.593-9.684l5.231-43.652A8.654,8.654,0,0,1,571.846,415H762.121a8.655,8.655,0,0,1,8.654,8.654v43.653A8.655,8.655,0,0,1,762.121,475.96Z" fill="#292a2e"></path>
      <g>
        <path d="M619.5,476.37l8.361-32.085a5.246,5.246,0,0,0-4.213-6.5c-5.949-1.124-6.674,7.072-7.8,11l-4.293-24.223c-.655-6.534-9.439-6.748-10.089-.238a.214.214,0,0,0-.136.023c.207-11.9-12.967-10.979-10.712-.55a.493.493,0,0,0-.123.118c-2.2-5.769-11.217-3.07-10,3.049l.7,4.4a.464.464,0,0,0-.658-.015c-3.025-4.283-10.441-1.141-9.3,4.221l5.918,37.151C580.54,496.749,615.9,504.812,619.5,476.37Z" fill="#E98862"></path>
        <g opacity="0.2">
          <path d="M605.6,448.318c-1.3-.122-4.08-22.729-4.6-23.436a.484.484,0,0,1,.954-.167L606,447.756A.484.484,0,0,1,605.6,448.318Z" fill="#0c0c0c"></path>
        </g>
        <g opacity="0.2">
          <path d="M595.483,450.386a.484.484,0,0,1-.549-.4l-4.523-25.714a.485.485,0,0,1,.393-.561c1.327-.121,4.555,25.567,5.084,26.108A.485.485,0,0,1,595.483,450.386Z" fill="#0c0c0c"></path>
        </g>
        <g opacity="0.2">
          <path d="M584.543,452.689a.484.484,0,0,1-.549-.4l-3.608-20.512a.484.484,0,0,1,.953-.167l3.609,20.511A.486.486,0,0,1,584.543,452.689Z" fill="#0c0c0c"></path>
        </g>
      </g>
      <g>
        <g>
          <path d="M322.3,590.843H89.893l-14.77-113.48a16.146,16.146,0,0,1,16.01-18.23h199.83a16.152,16.152,0,0,1,16.02,14.061Z" fill="#fff"></path>
          <path d="M308.193,473.043a17.421,17.421,0,0,0-17.23-15.14H91.133a17.4,17.4,0,0,0-6.41,1.23,16.55,16.55,0,0,0-2.49,1.23,17.369,17.369,0,0,0-8.33,17.16l14.76,113.32h2.47L76.343,477.214a14.922,14.922,0,0,1,14.79-16.851h199.83a14.971,14.971,0,0,1,14.8,12.99l15.3,117.49h2.48Z" fill="#292a2e"></path>
        </g>
        <g>
          <path d="M308.743,590.843H76.333l-14.77-113.48a16.143,16.143,0,0,1,16.01-18.23H277.4a16.146,16.146,0,0,1,16.01,14.061Z" fill="#292a2e"></path>
          <path d="M294.633,473.043a17.392,17.392,0,0,0-8.34-12.68,17.044,17.044,0,0,0-2.49-1.23,17.316,17.316,0,0,0-6.4-1.23H77.573a17.369,17.369,0,0,0-17.23,19.62l14.75,113.32h2.48L62.783,477.214a14.922,14.922,0,0,1,14.79-16.851H277.4a14.971,14.971,0,0,1,14.8,12.99l15.3,117.49h2.48Z" fill="#292a2e"></path>
        </g>
      </g>
      <g>
        <g>
          <path id="sk" d="M703.232,342.853c.229-.03,2.774,42.191,51.821,38.51,33.956-2.544,46.063-38.569,46.841-38.569-3.661-.778-9.826-1.91-11.452-2.778-5.347-2.872-12.963-5.862-14.686-16.245-.993-5.985.692-36.6.173-42.656l-51.121,11.633c.728,12.789,5.826,42.435-12.04,47.681C709.8,341.3,706.594,342.1,703.232,342.853Z" fill="#E98862"></path>
          <g>
            <path d="M726.246,312.694c20.584,1.589,47.008-7.146,51.983-34.613l4.489-24.784c4.975-27.468-5.419-52.347-31.281-57.031h0c-25.862-4.685-49.225,14.081-54.2,41.548l-1.988,10.972a84.233,84.233,0,0,0-1.072,11.424c-.333,10.115-.8,25.5,4.2,36.8C703.107,307.683,713.1,311.679,726.246,312.694Z" fill="#E98862"></path>
            <path d="M772.407,194.858a95.827,95.827,0,0,0-25.2-4.287c-.829-3.265-2.676-5.8-5.392-6.864-4.522-1.767-10.047,1.079-13.722,6.562-2.043-3.132-4.812-5.954-8.482-7.1-10.124-3.153-10.627,11.391-10.627,11.391s-16.053-15.841-16.555,4.363c-.606,24.445,3.884,31.614,7.162,33.424,6.472,3.574,11.292,2.97,13.853,8.228,7.756,15.923.154,60.774,9.129,66.39,13.75,8.6,41.913,8.9,51.061,8.246,3.517-.252,6.809-4.329,8.291-7.53,4.784-10.332,15.454-33.756,18.423-43.443C805.828,246.364,805.415,205.636,772.407,194.858Z" fill="#0c0c0c"></path>
            <path d="M716.428,290.946c7.94-.862,13.455-10.056,12.593-18s-7.774-11.62-15.715-10.759l-3.514,5.765-.191,23.732Z" fill="#E98862"></path>
          </g>
          <g>
            <g>
              <path d="M849.069,584.221l.246.014S849.138,579.494,849.069,584.221Z" fill="#333"></path>
              <path d="M632.721,436.273c1.551,18.213,9.092,131.838,10.582,154.271H848.721c1.16-20.233,6.371-108.7,10.771-148.27,4.2-37.755,12.442-56.658,6.4-67.82-9.871-18.242-36.845-28.784-55.237-31.274-11.232-1.52-13.546-2.61-18.124-2.61H713.441c-7.521,0-55.549,7.246-65.394,14.485C620.8,375.091,629.431,397.678,632.721,436.273Z" fill="#03045E"></path>
            </g>
            <path d="M892.58,589.354a37.5,37.5,0,0,0,35.183-50.477c-2.122-5.755-51.874-137.5-61.345-161.914L796.285,405.38c5.325,13.725,24.621,65.751,40.122,107.66l-25.753-2.8-8.106,74.567,85.974,4.326A37.4,37.4,0,0,0,892.58,589.354Z" fill="#03045E"></path>
            <rect x="776.921" y="516.119" width="147.573" height="1.366" transform="translate(305.119 1349.34) rotate(-88.04)" fill="#0c0c0c"></rect>
          </g>
        </g>
        <path d="M603.007,589.354a37.5,37.5,0,0,1-35.182-50.477c2.121-5.755,53.958-138.083,63.429-162.494l68.048,29c-5.325,13.725-24.621,65.751-40.122,107.66l25.753-2.8,8.106,74.567-85.974,4.326A37.4,37.4,0,0,1,603.007,589.354Z" fill="#03045E"></path>
        <path d="M659.019,504.3a.749.749,0,0,1-.714-.977L676.512,446a.75.75,0,1,1,1.429.454l-18.207,57.317A.75.75,0,0,1,659.019,504.3Z" fill="#0c0c0c"></path>
      </g>
      <g>
        <g>
          <path d="M892.34,477.363l-14.779,113.48H645.16l15.321-117.649a16.149,16.149,0,0,1,16.01-14.061h199.83a16.145,16.145,0,0,1,16.019,18.23Z" fill="#fff"></path>
          <path d="M889.38,463.813a17.34,17.34,0,0,0-4.149-3.45,16.7,16.7,0,0,0-2.5-1.23,17.4,17.4,0,0,0-6.41-1.23H676.491a17.428,17.428,0,0,0-17.23,15.14l-15.341,117.8h2.48l15.3-117.49a14.955,14.955,0,0,1,14.791-12.99h199.83a14.937,14.937,0,0,1,14.8,16.851l-14.8,113.629h2.48l14.75-113.32A17.371,17.371,0,0,0,889.38,463.813Z" fill="#292a2e"></path>
        </g>
        <g>
          <path d="M905.9,477.363l-14.779,113.48H658.72l15.321-117.649a16.148,16.148,0,0,1,9.83-12.831,15.961,15.961,0,0,1,6.18-1.23H889.89A16.149,16.149,0,0,1,905.9,477.363Z" fill="#292a2e"></path>
          <path d="M902.94,463.813a17.4,17.4,0,0,0-13.05-5.91H690.051a17.357,17.357,0,0,0-8.881,2.46,17.4,17.4,0,0,0-8.349,12.68l-15.34,117.8h2.479l15.3-117.49a14.953,14.953,0,0,1,14.79-12.99H889.89a14.921,14.921,0,0,1,14.79,16.851L889.89,590.843h2.47l14.761-113.32A17.407,17.407,0,0,0,902.94,463.813Z" fill="#292a2e"></path>
        </g>
      </g>
      <g>
        <path d="M11.95,591.545H925.369a.7.7,0,1,0,0-1.4H11.95a.7.7,0,0,0,0,1.4Z" fill="#292a2e"></path>
        <g opacity="0.65">
          <path d="M11.95,591.545H925.369a.7.7,0,1,0,0-1.4H11.95a.7.7,0,0,0,0,1.4Z" fill="#292a2e"></path>
        </g>
      </g>
      <polygon points="565.509 552.459 568.725 467.908 613.15 465.557 617.192 552.459 565.509 552.459" fill="#03045E"></polygon>
    </g>
  </g>
</svg>